# xmcd
#
# Track frame offsets: 
#        150
#        50937
#        80497
#        138846
#        161841
#        225396
#        279625
#
# Disc length: 4294 seconds
#
# Revision: 5
# Processed by: cddbd v1.5.2PL0 Copyright (c) Steve Scherf et al.
# Submitted via: ExactAudioCopy v0.99pb4
#
DISCID=5d10c407
DTITLE=David Oistrakh - David Oistrakh - The Complete EMI Recordings [
DTITLE=Disc 13]
DYEAR=2008
DGENRE=Concerto
TTITLE0=Shostakovich: Violin Concerto no.1 in A minor, op.99 (rec.1972
TTITLE0=) - 1. Nocturne. Moderato
TTITLE1=Shostakovich: Violin Concerto no.1 in A minor, op.99 (rec.1972
TTITLE1=) - 2. Scherzo. Allegro
TTITLE2=Shostakovich: Violin Concerto no.1 in A minor, op.99 (rec.1972
TTITLE2=) - 3. Passacaglia. Andante - Cadenza
TTITLE3=Shostakovich: Violin Concerto no.1 in A minor, op.99 (rec.1972
TTITLE3=) - 4. Burlesque. Allegro con brio
TTITLE4=Khachaturian: Violin Concerto in D minor (rec.1954) - 1. Alleg
TTITLE4=ro con fermezza (cad.Oïstrakh)
TTITLE5=Khachaturian: Violin Concerto in D minor (rec.1954) - 2. Andan
TTITLE5=te sostenuto
TTITLE6=Khachaturian: Violin Concerto in D minor (rec.1954) - 3. Alleg
TTITLE6=ro vivace
EXTD=
EXTT0=
EXTT1=
EXTT2=
EXTT3=
EXTT4=
EXTT5=
EXTT6=
PLAYORDER=
